<?xml version="1.0" encoding="utf-8"?>
<!-- Generator: Adobe Illustrator 16.0.0, SVG Export Plug-In . SVG Version: 6.00 Build 0)  -->
<!DOCTYPE svg PUBLIC "-//W3C//DTD SVG 1.1//EN" "http://www.w3.org/Graphics/SVG/1.1/DTD/svg11.dtd">
<svg version="1.1" id="Layer_1" xmlns="http://www.w3.org/2000/svg" xmlns:xlink="http://www.w3.org/1999/xlink" x="0px" y="0px"
	 width="25.1px" height="25.1px" viewBox="0 0 25.1 25.1" enable-background="new 0 0 25.1 25.1" xml:space="preserve">
<g>
	<path fill="#FFFFFF" d="M24.782,23.487l-8.023-8.023c1.389-1.682,2.145-3.776,2.145-5.986c0-2.519-0.98-4.886-2.76-6.666
		C14.362,1.03,11.995,0.05,9.477,0.05S4.591,1.03,2.811,2.812C1.03,4.592,0.049,6.959,0.05,9.478c0,2.518,0.98,4.885,2.761,6.666
		c1.78,1.779,4.148,2.76,6.666,2.76c2.211,0,4.304-0.756,5.987-2.145l8.023,8.023c0.178,0.178,0.412,0.268,0.646,0.268
		s0.469-0.09,0.648-0.268C25.14,24.423,25.14,23.845,24.782,23.487z M14.849,4.106c1.434,1.435,2.225,3.342,2.225,5.371
		c0,2.028-0.789,3.936-2.225,5.369c0,0,0,0,0,0.002c-0.002,0-0.002,0-0.002,0c-1.435,1.434-3.342,2.225-5.37,2.225
		s-3.937-0.791-5.371-2.225c-1.435-1.436-2.225-3.343-2.225-5.371c0-2.029,0.79-3.937,2.225-5.371s3.342-2.225,5.371-2.225
		C11.505,1.882,13.413,2.672,14.849,4.106z"/>
</g>
</svg>
